<?xml version="1.0" standalone="no"?>
<!DOCTYPE svg PUBLIC "-//W3C//DTD SVG 20010904//EN"
 "http://www.w3.org/TR/2001/REC-SVG-20010904/DTD/svg10.dtd">
<svg version="1.0" xmlns="http://www.w3.org/2000/svg"
 width="735.000000pt" height="517.000000pt" viewBox="0 0 735.000000 517.000000"
 preserveAspectRatio="xMidYMid meet">

<g transform="translate(0.000000,517.000000) scale(0.100000,-0.100000)"
fill="#000000" stroke="none">
<path d="M1906 1995 c-20 -15 -24 -49 -13 -99 6 -30 17 -47 17 -28 0 7 7 12
16 12 8 0 12 -4 9 -10 -3 -5 0 -7 9 -4 12 5 11 9 -5 25 -10 10 -19 26 -19 35
0 8 -4 12 -10 9 -18 -11 -11 11 10 30 10 9 26 15 35 12 20 -8 19 -47 -2 -62
-15 -11 -15 -13 6 -20 35 -11 55 15 47 59 -7 35 -13 40 -48 37 -10 -1 -18 3
-18 8 0 15 -11 13 -34 -4z m24 1 c0 -2 -8 -10 -17 -17 -16 -13 -17 -12 -4 4
13 16 21 21 21 13z m60 -81 c-7 -8 -17 -15 -22 -15 -11 0 14 29 26 30 5 0 3
-7 -4 -15z"/>
<path d="M1850 1829 c0 -5 5 -7 10 -4 6 3 10 8 10 11 0 2 -4 4 -10 4 -5 0 -10
-5 -10 -11z"/>
<path d="M1872 1823 c-9 -9 -18 -11 -26 -4 -13 11 -45 -3 -33 -16 5 -4 12 -1
17 7 8 12 10 12 10 1 0 -9 8 -11 24 -7 16 4 30 0 42 -11 15 -16 17 -16 12 -2
-4 9 -3 20 0 25 4 5 6 8 3 7 -2 -1 -11 2 -20 6 -10 6 -21 4 -29 -6z"/>
<path d="M1780 1793 c0 -17 4 -20 22 -15 16 4 18 7 8 10 -8 3 -18 10 -22 16
-5 6 -8 2 -8 -11z"/>
<path d="M4790 1791 c0 -10 7 -21 15 -25 18 -7 20 -47 3 -64 -7 -7 -8 -12 -2
-12 5 0 4 -4 -2 -8 -9 -5 -8 -11 2 -20 9 -8 14 -9 14 -2 0 6 5 8 12 4 8 -5 9
-2 5 9 -4 10 -2 17 4 17 7 0 9 11 7 25 -3 14 -2 25 2 25 15 0 -3 41 -23 55
-28 20 -37 19 -37 -4z"/>
<path d="M4753 1792 c-6 -4 -17 -20 -22 -35 -7 -18 -7 -26 -1 -22 6 3 10 1 10
-4 0 -23 17 -9 28 22 17 49 14 58 -15 39z"/>
<path d="M1755 1770 c-3 -5 -1 -10 4 -10 6 0 11 5 11 10 0 6 -2 10 -4 10 -3 0
-8 -4 -11 -10z"/>
<path d="M1805 1758 c-33 -19 -36 -30 -30 -100 10 -116 17 -138 39 -138 18 0
106 111 106 134 0 11 -10 41 -22 68 -18 39 -26 48 -47 48 -14 0 -35 -6 -46
-12z m57 -88 c3 -17 1 -30 -3 -30 -14 0 -39 31 -39 49 0 45 35 29 42 -19z"/>
<path d="M1951 1655 c2 -47 1 -51 -28 -87 l-27 -33 32 29 c28 26 45 26 25 0
-5 -5 2 2 15 16 22 24 29 89 8 82 -5 -2 -13 2 -18 10 -6 9 -8 4 -7 -17z"/>
<path d="M4830 1630 c-19 -12 -21 -70 -2 -63 7 3 10 8 8 11 -12 11 18 32 47
32 29 0 30 1 11 15 -22 17 -43 19 -64 5z"/>
<path d="M4900 1632 c8 -3 21 -14 29 -25 11 -15 15 -16 22 -6 6 9 9 10 9 2 0
-17 55 -42 71 -32 19 11 -7 39 -36 39 -13 0 -25 6 -28 14 -4 9 -20 14 -44 14
-21 0 -31 -3 -23 -6z m115 -42 c3 -6 -1 -7 -9 -4 -18 7 -21 14 -7 14 6 0 13
-4 16 -10z"/>
<path d="M1740 1591 c0 -6 4 -13 10 -16 6 -3 7 1 4 9 -7 18 -14 21 -14 7z"/>
<path d="M4871 1561 c-6 -10 -13 -43 -17 -72 l-6 -54 56 -54 c74 -73 86 -64
86 63 0 50 -4 96 -8 102 -23 35 -95 45 -111 15z m67 -58 c2 -14 -4 -22 -17
-26 -17 -4 -21 0 -21 17 0 41 32 48 38 9z"/>
<path d="M1732 1540 c0 -19 2 -27 5 -17 2 9 2 25 0 35 -3 9 -5 1 -5 -18z"/>
<path d="M1748 1510 c-3 -30 -4 -57 -3 -58 2 -2 12 1 22 8 17 11 17 11 -1 6
-14 -5 -16 -3 -8 6 6 8 7 29 3 53 l-7 40 -6 -55z"/>
<path d="M2447 1542 c-15 -3 -17 -13 -13 -73 2 -39 9 -76 15 -83 8 -10 45 -14
124 -16 61 -1 128 -3 147 -4 84 -3 22 86 -82 118 -29 10 -64 23 -78 31 -34 18
-91 32 -113 27z m76 -72 c14 -11 30 -20 37 -20 6 0 8 -4 5 -10 -3 -5 0 -10 7
-11 11 0 11 -2 0 -6 -7 -3 -22 5 -33 18 -14 16 -22 20 -27 12 -5 -7 -11 -3
-19 13 -14 29 -4 31 30 4z m110 -37 c-7 -2 -21 -2 -30 0 -10 3 -4 5 12 5 17 0
24 -2 18 -5z m-98 -13 c-3 -5 -12 -7 -20 -3 -21 7 -19 13 6 13 11 0 18 -4 14
-10z"/>
<path d="M3725 1505 c-22 -8 -65 -14 -95 -15 -101 -2 -188 -36 -233 -90 -43
-51 -28 -64 62 -55 42 4 123 9 181 11 82 2 106 6 108 17 2 9 10 13 23 10 15
-4 19 0 19 19 0 14 7 39 15 55 29 59 2 75 -80 48z m5 -65 c-20 -13 -33 -13
-25 0 3 6 14 10 23 10 15 0 15 -2 2 -10z m-134 -9 c5 -5 18 -11 29 -13 11 -3
-3 -6 -32 -9 -28 -2 -49 -1 -47 3 2 3 -2 9 -8 12 -7 3 -3 3 10 0 12 -3 22 -1
22 5 0 13 13 14 26 2z m77 2 c-13 -2 -33 -2 -45 0 -13 2 -3 4 22 4 25 0 35 -2
23 -4z m67 -13 c0 -5 -17 -9 -37 -9 l-38 2 35 7 c19 4 36 8 38 9 1 0 2 -3 2
-9z m-220 -10 c0 -5 -4 -10 -10 -10 -5 0 -10 5 -10 10 0 6 5 10 10 10 6 0 10
-4 10 -10z m-30 -10 c0 -5 -5 -10 -11 -10 -5 0 -7 5 -4 10 3 6 8 10 11 10 2 0
4 -4 4 -10z"/>
<path d="M4786 1415 c-8 -21 34 -66 66 -69 15 -2 25 1 22 5 -3 5 -12 9 -20 9
-8 0 -13 3 -12 8 3 10 -32 62 -42 62 -4 0 -10 -7 -14 -15z"/>
<path d="M5017 1356 c-9 -24 -9 -28 2 -21 5 3 3 -8 -5 -24 l-15 -30 -32 19
c-18 11 -36 20 -42 20 -5 -1 2 -8 18 -16 15 -8 27 -21 27 -28 0 -21 27 -27 35
-8 5 14 7 14 15 2 8 -13 10 -12 14 0 2 8 5 22 5 30 0 8 3 29 6 45 5 21 4 26
-3 16 -8 -11 -10 -11 -14 0 -3 9 -6 8 -11 -5z"/>
<path d="M2966 1305 c-3 -9 1 -18 9 -21 23 -9 50 0 53 19 3 13 -3 17 -26 17
-18 0 -32 -6 -36 -15z"/>
<path d="M4930 1286 c0 -2 7 -7 16 -10 8 -3 12 -2 9 4 -6 10 -25 14 -25 6z"/>
<path d="M2885 1250 c3 -6 0 -11 -7 -11 -44 -4 97 -17 155 -14 50 2 66 0 52
-6 -16 -7 -13 -8 13 -4 17 2 32 0 32 -5 0 -14 67 -13 75 1 11 17 2 19 -94 21
-51 1 -84 5 -75 8 16 6 16 7 1 13 -25 9 -82 -3 -65 -14 23 -15 -19 -11 -58 6
-19 8 -32 10 -29 5z"/>
</g>
</svg>
